<svg width="81" height="73" viewBox="0 0 81 73" fill="none" xmlns="http://www.w3.org/2000/svg">
<path d="M2.21591 39.6761V37.0341C4.58807 37.0341 6.2429 36.5369 7.1804 35.5426C8.1321 34.5483 8.60795 32.8864 8.60795 30.5568V23.7386C8.60795 21.7784 8.79261 20.081 9.16193 18.6463C9.54545 17.2116 10.1634 16.0256 11.0156 15.0881C11.8679 14.1506 13.0043 13.4545 14.4247 13C15.8452 12.5455 17.5994 12.3182 19.6875 12.3182V16.4943C18.0398 16.4943 16.7401 16.75 15.7884 17.2614C14.8509 17.7727 14.1832 18.5682 13.7855 19.6477C13.402 20.7131 13.2102 22.0767 13.2102 23.7386V32.2614C13.2102 33.3693 13.0611 34.3778 12.7628 35.2869C12.4787 36.196 11.946 36.9773 11.1648 37.6307C10.3835 38.2841 9.26847 38.7884 7.8196 39.1435C6.38494 39.4986 4.51705 39.6761 2.21591 39.6761ZM19.6875 66.8636C17.5994 66.8636 15.8452 66.6364 14.4247 66.1818C13.0043 65.7273 11.8679 65.0312 11.0156 64.0938C10.1634 63.1562 9.54545 61.9702 9.16193 60.5355C8.79261 59.1009 8.60795 57.4034 8.60795 55.4432V48.625C8.60795 46.2955 8.1321 44.6335 7.1804 43.6392C6.2429 42.6449 4.58807 42.1477 2.21591 42.1477V39.5057C4.51705 39.5057 6.38494 39.6832 7.8196 40.0384C9.26847 40.3935 10.3835 40.8977 11.1648 41.5511C11.946 42.2045 12.4787 42.9858 12.7628 43.8949C13.0611 44.804 13.2102 45.8125 13.2102 46.9205V55.4432C13.2102 57.1051 13.402 58.4688 13.7855 59.5341C14.1832 60.5994 14.8509 61.3878 15.7884 61.8991C16.7401 62.4247 18.0398 62.6875 19.6875 62.6875V66.8636ZM2.21591 42.1477V37.0341H7.24432V42.1477H2.21591Z" fill="#0693E3"/>
<path d="M78.517 39.5057V42.1477C76.1449 42.1477 74.483 42.6449 73.5312 43.6392C72.5938 44.6335 72.125 46.2955 72.125 48.625V55.4432C72.125 57.4034 71.9332 59.1009 71.5497 60.5355C71.1804 61.9702 70.5696 63.1562 69.7173 64.0938C68.8651 65.0312 67.7287 65.7273 66.3082 66.1818C64.8878 66.6364 63.1335 66.8636 61.0455 66.8636V62.6875C62.6932 62.6875 63.9858 62.4247 64.9233 61.8991C65.875 61.3878 66.5426 60.5994 66.9261 59.5341C67.3239 58.4688 67.5227 57.1051 67.5227 55.4432V46.9205C67.5227 45.8125 67.6648 44.804 67.9489 43.8949C68.2472 42.9858 68.7869 42.2045 69.5682 41.5511C70.3494 40.8977 71.4574 40.3935 72.892 40.0384C74.3409 39.6832 76.2159 39.5057 78.517 39.5057ZM61.0455 12.3182C63.1335 12.3182 64.8878 12.5455 66.3082 13C67.7287 13.4545 68.8651 14.1506 69.7173 15.0881C70.5696 16.0256 71.1804 17.2116 71.5497 18.6463C71.9332 20.081 72.125 21.7784 72.125 23.7386V30.5568C72.125 32.8864 72.5938 34.5483 73.5312 35.5426C74.483 36.5369 76.1449 37.0341 78.517 37.0341V39.6761C76.2159 39.6761 74.3409 39.4986 72.892 39.1435C71.4574 38.7884 70.3494 38.2841 69.5682 37.6307C68.7869 36.9773 68.2472 36.196 67.9489 35.2869C67.6648 34.3778 67.5227 33.3693 67.5227 32.2614V23.7386C67.5227 22.0767 67.3239 20.7131 66.9261 19.6477C66.5426 18.5682 65.875 17.7727 64.9233 17.2614C63.9858 16.75 62.6932 16.4943 61.0455 16.4943V12.3182ZM78.517 37.0341V42.1477H73.4886V37.0341H78.517Z" fill="#0693E3"/>
<path d="M32.325 48H30.25V30.5H32.325V38.55H40.45V30.5H42.525V48H40.45V38.8H32.325V48ZM57.2955 30.5C57.6122 30.8167 57.7705 31.225 57.7705 31.725C57.7705 32.1417 57.6788 32.5667 57.4955 33L51.0955 48L50.8205 48.125L44.5205 30.5H46.6455L51.8705 45.3L57.1955 33C57.3788 32.5833 57.4705 32.15 57.4705 31.7C57.4705 31.25 57.3455 30.9 57.0955 30.65L57.2955 30.5Z" fill="#0693E3"/>
</svg>
